<?xml version="1.0" standalone="no"?>
<!DOCTYPE svg PUBLIC "-//W3C//DTD SVG 20010904//EN"
 "http://www.w3.org/TR/2001/REC-SVG-20010904/DTD/svg10.dtd">
<svg version="1.0" xmlns="http://www.w3.org/2000/svg"
 width="900.000000pt" height="900.000000pt" viewBox="0 0 900.000000 900.000000"
 preserveAspectRatio="xMidYMid meet">

<g transform="translate(0.000000,900.000000) scale(0.100000,-0.100000)"
fill="#000000" stroke="none">
<path d="M4250 8989 c-408 -26 -832 -108 -1193 -230 -639 -216 -1199 -560
-1691 -1039 -158 -154 -342 -355 -395 -434 -8 -12 -17 -23 -21 -26 -17 -14
-114 -151 -204 -285 -129 -193 -291 -498 -390 -734 -51 -122 -145 -389 -176
-501 -7 -25 -18 -65 -26 -90 -49 -165 -112 -523 -130 -730 -3 -41 -8 -91 -10
-110 -10 -86 -13 -447 -4 -570 18 -248 58 -518 115 -780 38 -171 151 -525 210
-655 8 -16 26 -59 41 -95 55 -134 234 -475 304 -580 9 -14 43 -65 75 -115 55
-85 227 -319 277 -377 13 -14 48 -56 78 -92 110 -131 449 -456 569 -546 19
-14 43 -33 55 -44 31 -27 275 -200 332 -235 67 -41 200 -120 249 -148 285
-165 693 -328 1038 -417 139 -36 455 -99 556 -110 30 -4 64 -9 75 -11 12 -2
48 -7 81 -10 398 -38 755 -27 1135 36 69 11 139 23 155 25 159 26 739 195 770
225 5 5 15 9 22 9 23 0 313 133 444 203 173 94 218 120 349 204 128 83 175
115 279 193 336 252 684 606 923 941 9 13 28 40 42 59 39 55 170 260 201 315
128 226 144 258 261 522 143 322 283 856 320 1223 3 36 8 68 10 71 7 12 19
295 19 454 0 157 -12 432 -20 445 -1 3 -6 37 -9 75 -4 39 -11 95 -16 125 -5
30 -12 73 -16 95 -7 47 -37 200 -58 298 -80 365 -286 881 -482 1210 -66 110
-79 130 -177 277 -167 251 -300 413 -532 646 -238 239 -397 370 -670 551 -55
36 -111 74 -125 83 -64 43 -250 145 -395 216 -153 76 -191 94 -315 144 -30 12
-68 28 -85 35 -138 60 -544 176 -750 214 -145 27 -157 29 -245 40 -304 39
-571 48 -850 30z m3050 -2590 c0 -7 -19 -44 -41 -83 -45 -76 -259 -448 -291
-506 -11 -19 -44 -75 -73 -125 -29 -49 -62 -106 -73 -125 -10 -19 -54 -96 -97
-170 -42 -74 -89 -155 -102 -180 -14 -25 -40 -70 -58 -100 -18 -30 -130 -224
-248 -430 -118 -206 -292 -510 -387 -675 -272 -471 -437 -759 -518 -900 -41
-71 -83 -145 -93 -162 -11 -18 -27 -48 -38 -65 -32 -58 -165 -289 -246 -428
-43 -74 -92 -160 -108 -190 -17 -30 -38 -66 -47 -80 -9 -14 -19 -30 -21 -35
-12 -32 -313 -545 -320 -545 -4 0 -14 12 -22 28 -7 15 -49 88 -92 162 -69 119
-238 413 -285 495 -9 17 -95 165 -190 330 -95 165 -184 320 -198 345 -14 25
-56 99 -95 165 -38 66 -79 136 -90 155 -10 19 -131 229 -267 465 -136 237
-258 450 -272 475 -14 25 -85 149 -158 275 -74 127 -150 259 -170 295 -20 36
-46 81 -57 100 -11 19 -55 96 -98 170 -43 74 -85 149 -95 165 -23 40 -168 292
-190 330 -9 17 -61 107 -115 200 -54 94 -141 244 -193 335 -52 91 -112 195
-133 232 -22 37 -39 72 -39 78 0 7 872 10 2760 10 2073 0 2760 -3 2760 -11z"/>
<path d="M4390 5624 c-137 -21 -212 -45 -332 -105 -242 -120 -462 -315 -640
-569 -64 -91 -107 -172 -100 -190 8 -24 146 -231 187 -280 99 -121 269 -278
385 -357 237 -161 540 -240 780 -203 322 50 587 204 851 495 103 114 242 320
241 360 0 27 -97 183 -175 280 -256 319 -575 522 -897 570 -118 18 -185 18
-300 -1z m305 -270 c133 -35 272 -135 344 -249 17 -27 45 -85 63 -130 29 -74
31 -89 31 -200 1 -84 -4 -136 -16 -173 -81 -260 -310 -432 -576 -432 -106 0
-172 17 -279 71 -138 70 -248 207 -299 369 -22 73 -23 255 -1 326 100 323 411
501 733 418z"/>
<path d="M4441 5023 c-52 -18 -118 -81 -146 -138 -30 -59 -28 -175 3 -235 51
-96 119 -141 226 -148 89 -5 158 21 212 80 75 84 95 207 49 303 -61 126 -209
186 -344 138z"/>
</g>
</svg>
